<svg width="20" height="20" viewBox="0 0 20 20" fill="none" xmlns="http://www.w3.org/2000/svg">
<path fill-rule="evenodd" clip-rule="evenodd" d="M1.66669 9.99998C1.66669 9.55795 1.84228 9.13403 2.15484 8.82147C2.4674 8.50891 2.89133 8.33331 3.33335 8.33331C3.77538 8.33331 4.1993 8.50891 4.51186 8.82147C4.82443 9.13403 5.00002 9.55795 5.00002 9.99998C5.00002 10.442 4.82443 10.8659 4.51186 11.1785C4.1993 11.4911 3.77538 11.6666 3.33335 11.6666C2.89133 11.6666 2.4674 11.4911 2.15484 11.1785C1.84228 10.8659 1.66669 10.442 1.66669 9.99998ZM15 9.99998C15 9.55795 15.1756 9.13403 15.4882 8.82147C15.8007 8.50891 16.2247 8.33331 16.6667 8.33331C17.1087 8.33331 17.5326 8.50891 17.8452 8.82147C18.1578 9.13403 18.3334 9.55795 18.3334 9.99998C18.3334 10.442 18.1578 10.8659 17.8452 11.1785C17.5326 11.4911 17.1087 11.6666 16.6667 11.6666C16.2247 11.6666 15.8007 11.4911 15.4882 11.1785C15.1756 10.8659 15 10.442 15 9.99998ZM10 8.33331C9.55799 8.33331 9.13407 8.50891 8.82151 8.82147C8.50895 9.13403 8.33335 9.55795 8.33335 9.99998C8.33335 10.442 8.50895 10.8659 8.82151 11.1785C9.13407 11.4911 9.55799 11.6666 10 11.6666C10.442 11.6666 10.866 11.4911 11.1785 11.1785C11.4911 10.8659 11.6667 10.442 11.6667 9.99998C11.6667 9.55795 11.4911 9.13403 11.1785 8.82147C10.866 8.50891 10.442 8.33331 10 8.33331Z" fill="#6F869F"/>
</svg>
