<svg width="28" height="28" viewBox="0 0 28 28" fill="none" xmlns="http://www.w3.org/2000/svg">
<path fill-rule="evenodd" clip-rule="evenodd" d="M14.735 2.01134C14.5271 1.84273 14.2676 1.7507 14 1.7507C13.7324 1.7507 13.4728 1.84273 13.265 2.01134L3.93167 9.59467C3.79692 9.70398 3.68825 9.84197 3.61358 9.99859C3.53891 10.1552 3.5001 10.3265 3.5 10.5V23.3333C3.5 23.6428 3.62292 23.9395 3.84171 24.1583C4.0605 24.3771 4.35725 24.5 4.66667 24.5H10.5C10.8094 24.5 11.1062 24.3771 11.325 24.1583C11.5437 23.9395 11.6667 23.6428 11.6667 23.3333V16.3333H16.3333V23.3333C16.3333 23.6428 16.4562 23.9395 16.675 24.1583C16.8938 24.3771 17.1906 24.5 17.5 24.5H23.3333C23.6428 24.5 23.9395 24.3771 24.1583 24.1583C24.3771 23.9395 24.5 23.6428 24.5 23.3333V10.5C24.4999 10.3265 24.4611 10.1552 24.3864 9.99859C24.3117 9.84197 24.2031 9.70398 24.0683 9.59467L14.735 2.01134Z" fill="#0B0F14"/>
</svg>
