<svg width="18" height="18" viewBox="0 0 18 18" fill="none" xmlns="http://www.w3.org/2000/svg">
<path fill-rule="evenodd" clip-rule="evenodd" d="M12.5505 3.81825C11.622 3.61125 10.5195 3.8535 9.53402 4.85325C9.46425 4.924 9.38111 4.98018 9.28944 5.01852C9.19777 5.05687 9.09939 5.07661 9.00002 5.07661C8.90065 5.07661 8.80227 5.05687 8.7106 5.01852C8.61893 4.98018 8.53579 4.924 8.46602 4.85325C7.48052 3.85275 6.37802 3.6105 5.44952 3.8175C4.50227 4.029 3.66527 4.722 3.25952 5.7345C2.49752 7.635 3.18902 11.13 9.00002 14.511C14.8103 11.13 15.5025 7.635 14.7405 5.736C14.3348 4.72275 13.4978 4.02975 12.5505 3.81825ZM16.1333 5.17725C17.3363 8.17725 15.7628 12.4447 9.36677 16.0297C9.25474 16.0926 9.12846 16.1255 9.00002 16.1255C8.87158 16.1255 8.7453 16.0926 8.63327 16.0297C2.23727 12.444 0.66377 8.1765 1.86752 5.1765C2.45177 3.72 3.67802 2.676 5.12402 2.3535C6.39677 2.07 7.78802 2.35575 9.00077 3.318C10.2135 2.35575 11.6048 2.07 12.8783 2.3535C14.3235 2.676 15.5498 3.72075 16.1333 5.17725Z" fill="#6F869F"/>
</svg>
