<svg width="18" height="18" viewBox="0 0 18 18" fill="none" xmlns="http://www.w3.org/2000/svg">
<path fill-rule="evenodd" clip-rule="evenodd" d="M13.4678 1.71975C13.3986 1.64812 13.3158 1.59098 13.2243 1.55167C13.1328 1.51237 13.0344 1.49168 12.9348 1.49081C12.8352 1.48995 12.7365 1.50892 12.6443 1.54663C12.5521 1.58434 12.4684 1.64003 12.398 1.71045C12.3275 1.78087 12.2718 1.86461 12.2341 1.95678C12.1964 2.04896 12.1774 2.14772 12.1783 2.2473C12.1792 2.34689 12.1999 2.4453 12.2392 2.5368C12.2785 2.62831 12.3356 2.71106 12.4072 2.78025L13.377 3.75H4.5C3.90326 3.75 3.33097 3.98705 2.90901 4.40901C2.48705 4.83097 2.25 5.40326 2.25 6V8.25C2.25 8.44891 2.32902 8.63968 2.46967 8.78033C2.61032 8.92098 2.80109 9 3 9C3.19891 9 3.38968 8.92098 3.53033 8.78033C3.67098 8.63968 3.75 8.44891 3.75 8.25V6C3.75 5.80109 3.82902 5.61032 3.96967 5.46967C4.11032 5.32902 4.30109 5.25 4.5 5.25H13.377L12.4072 6.21975C12.2706 6.3612 12.195 6.55065 12.1967 6.7473C12.1985 6.94395 12.2773 7.13206 12.4164 7.27111C12.5554 7.41017 12.7436 7.48905 12.9402 7.49076C13.1368 7.49246 13.3263 7.41687 13.4678 7.28025L15.3202 5.42775C15.5662 5.18163 15.7043 4.84794 15.7043 4.5C15.7043 4.15206 15.5662 3.81836 15.3202 3.57225L13.4678 1.71975ZM15 9C15.1989 9 15.3897 9.07902 15.5303 9.21967C15.671 9.36032 15.75 9.55109 15.75 9.75V12C15.75 12.5967 15.5129 13.169 15.091 13.591C14.669 14.0129 14.0967 14.25 13.5 14.25H4.623L5.59275 15.2197C5.66438 15.2889 5.72152 15.3717 5.76083 15.4632C5.80013 15.5547 5.82082 15.6531 5.82169 15.7527C5.82255 15.8523 5.80358 15.951 5.76587 16.0432C5.72816 16.1354 5.67247 16.2191 5.60205 16.2895C5.53163 16.36 5.44789 16.4157 5.35572 16.4534C5.26354 16.4911 5.16478 16.5101 5.0652 16.5092C4.96561 16.5083 4.8672 16.4876 4.7757 16.4483C4.68419 16.409 4.60144 16.3519 4.53225 16.2803L2.67975 14.4277C2.43381 14.1816 2.29566 13.8479 2.29566 13.5C2.29566 13.1521 2.43381 12.8184 2.67975 12.5723L4.53225 10.7197C4.6737 10.5831 4.86315 10.5075 5.0598 10.5092C5.25645 10.511 5.44456 10.5898 5.58361 10.7289C5.72267 10.8679 5.80155 11.0561 5.80326 11.2527C5.80496 11.4493 5.72937 11.6388 5.59275 11.7802L4.623 12.75H13.5C13.6989 12.75 13.8897 12.671 14.0303 12.5303C14.171 12.3897 14.25 12.1989 14.25 12V9.75C14.25 9.55109 14.329 9.36032 14.4697 9.21967C14.6103 9.07902 14.8011 9 15 9Z" fill="#6F869F"/>
</svg>
