<svg width="28" height="28" viewBox="0 0 28 28" fill="none" xmlns="http://www.w3.org/2000/svg">
<path fill-rule="evenodd" clip-rule="evenodd" d="M12.8333 5.83334C11.9141 5.83334 11.0038 6.0144 10.1545 6.36618C9.30527 6.71797 8.5336 7.23358 7.88359 7.88359C7.23358 8.5336 6.71796 9.30528 6.36618 10.1546C6.01439 11.0038 5.83333 11.9141 5.83333 12.8333C5.83333 13.7526 6.01439 14.6628 6.36618 15.5121C6.71796 16.3614 7.23358 17.1331 7.88359 17.7831C8.5336 18.4331 9.30527 18.9487 10.1545 19.3005C11.0038 19.6523 11.9141 19.8333 12.8333 19.8333C14.6898 19.8333 16.4703 19.0958 17.7831 17.7831C19.0958 16.4703 19.8333 14.6899 19.8333 12.8333C19.8333 10.9768 19.0958 9.19635 17.7831 7.88359C16.4703 6.57084 14.6898 5.83334 12.8333 5.83334ZM3.5 12.8333C3.50021 11.348 3.85492 9.88418 4.53465 8.56351C5.21437 7.24283 6.19948 6.10346 7.40811 5.24007C8.61673 4.37669 10.014 3.81423 11.4837 3.59944C12.9534 3.38466 14.4532 3.52374 15.8583 4.00515C17.2635 4.48655 18.5334 5.29636 19.5627 6.36729C20.5919 7.43821 21.3507 8.73931 21.7759 10.1625C22.2012 11.5856 22.2807 13.0897 22.0077 14.5497C21.7348 16.0098 21.1173 17.3836 20.2067 18.557L24.1582 22.5085C24.3707 22.7285 24.4883 23.0232 24.4856 23.3291C24.483 23.635 24.3603 23.9277 24.144 24.144C23.9276 24.3603 23.635 24.483 23.3291 24.4856C23.0232 24.4883 22.7285 24.3707 22.5085 24.1582L18.557 20.2067C17.1774 21.2778 15.5249 21.9403 13.7874 22.1188C12.0499 22.2974 10.2972 21.9848 8.72859 21.2166C7.15995 20.4485 5.83834 19.2556 4.91403 17.7736C3.98972 16.2916 3.49981 14.58 3.5 12.8333Z" fill="#0B0F14"/>
</svg>
