<svg width="22" height="24" viewBox="0 0 22 24" fill="none" xmlns="http://www.w3.org/2000/svg">
<path fill-rule="evenodd" clip-rule="evenodd" d="M10.265 1.01134C10.4728 0.842725 10.7324 0.750702 11 0.750702C11.2676 0.750702 11.5271 0.842725 11.735 1.01134L21.0683 8.59467C21.2031 8.70398 21.3117 8.84197 21.3864 8.99859C21.4611 9.1552 21.4999 9.3265 21.5 9.50001V22.3333C21.5 22.6428 21.3771 22.9395 21.1583 23.1583C20.9395 23.3771 20.6428 23.5 20.3333 23.5H13.3333C13.0239 23.5 12.7272 23.3771 12.5084 23.1583C12.2896 22.9395 12.1667 22.6428 12.1667 22.3333V16.5H9.83333V22.3333C9.83333 22.6428 9.71042 22.9395 9.49162 23.1583C9.27283 23.3771 8.97609 23.5 8.66667 23.5H1.66667C1.35725 23.5 1.0605 23.3771 0.841709 23.1583C0.622916 22.9395 0.5 22.6428 0.5 22.3333V9.50001C0.500103 9.3265 0.538905 9.1552 0.61358 8.99859C0.688255 8.84197 0.796922 8.70398 0.931667 8.59467L10.265 1.01134ZM2.83333 10.0553V21.1667H7.5V15.3333C7.5 15.0239 7.62292 14.7272 7.84171 14.5084C8.0605 14.2896 8.35725 14.1667 8.66667 14.1667H13.3333C13.6428 14.1667 13.9395 14.2896 14.1583 14.5084C14.3771 14.7272 14.5 15.0239 14.5 15.3333V21.1667H19.1667V10.0553L11 3.41934L2.83333 10.0553Z" fill="#0B0F14"/>
</svg>
