<svg width="16" height="15" viewBox="0 0 16 15" fill="none" xmlns="http://www.w3.org/2000/svg">
<path fill-rule="evenodd" clip-rule="evenodd" d="M0.501495 2.5C0.501495 1.90326 0.738548 1.33097 1.1605 0.90901C1.58246 0.487053 2.15476 0.25 2.7515 0.25H13.2515C13.8482 0.25 14.4205 0.487053 14.8425 0.90901C15.2644 1.33097 15.5015 1.90326 15.5015 2.5V10C15.5015 10.5967 15.2644 11.169 14.8425 11.591C14.4205 12.0129 13.8482 12.25 13.2515 12.25H8.21L4.6385 14.3935C4.52463 14.4621 4.39459 14.4992 4.26168 14.501C4.12877 14.5028 3.99776 14.4692 3.88208 14.4038C3.7664 14.3383 3.6702 14.2433 3.60332 14.1284C3.53645 14.0135 3.50131 13.8829 3.5015 13.75V12.25H2.7515C2.15476 12.25 1.58246 12.0129 1.1605 11.591C0.738548 11.169 0.501495 10.5967 0.501495 10V2.5ZM2.7515 1.75C2.55258 1.75 2.36182 1.82902 2.22117 1.96967C2.08051 2.11032 2.0015 2.30109 2.0015 2.5V10C2.0015 10.1989 2.08051 10.3897 2.22117 10.5303C2.36182 10.671 2.55258 10.75 2.7515 10.75H4.2515C4.45041 10.75 4.64117 10.829 4.78183 10.9697C4.92248 11.1103 5.0015 11.3011 5.0015 11.5V12.4255L7.616 10.8565C7.73249 10.7868 7.86572 10.75 8.0015 10.75H13.2515C13.4504 10.75 13.6412 10.671 13.7818 10.5303C13.9225 10.3897 14.0015 10.1989 14.0015 10V2.5C14.0015 2.30109 13.9225 2.11032 13.7818 1.96967C13.6412 1.82902 13.4504 1.75 13.2515 1.75H2.7515Z" fill="#6F869F"/>
</svg>
