<svg width="28" height="28" viewBox="0 0 28 28" fill="none" xmlns="http://www.w3.org/2000/svg">
<path fill-rule="evenodd" clip-rule="evenodd" d="M5.83334 12.8333C5.83334 11.9141 6.0144 11.0038 6.36618 10.1545C6.71797 9.30527 7.23358 8.5336 7.88359 7.88359C8.5336 7.23358 9.30528 6.71796 10.1546 6.36618C11.0038 6.01439 11.9141 5.83333 12.8333 5.83333C13.7526 5.83333 14.6628 6.01439 15.5121 6.36618C16.3614 6.71796 17.1331 7.23358 17.7831 7.88359C18.4331 8.5336 18.9487 9.30527 19.3005 10.1545C19.6523 11.0038 19.8333 11.9141 19.8333 12.8333C19.8333 14.6898 19.0958 16.4703 17.7831 17.7831C16.4703 19.0958 14.6899 19.8333 12.8333 19.8333C10.9768 19.8333 9.19635 19.0958 7.88359 17.7831C6.57084 16.4703 5.83334 14.6898 5.83334 12.8333ZM12.8333 3.5C11.348 3.50021 9.88418 3.85492 8.56351 4.53465C7.24283 5.21437 6.10346 6.19948 5.24007 7.40811C4.37669 8.61673 3.81423 10.014 3.59944 11.4837C3.38466 12.9534 3.52374 14.4532 4.00515 15.8583C4.48655 17.2635 5.29636 18.5334 6.36729 19.5627C7.43821 20.5919 8.73931 21.3507 10.1625 21.7759C11.5856 22.2012 13.0897 22.2807 14.5497 22.0077C16.0098 21.7348 17.3836 21.1173 18.557 20.2067L22.5085 24.1582C22.7285 24.3707 23.0232 24.4883 23.3291 24.4856C23.635 24.483 23.9277 24.3603 24.144 24.144C24.3603 23.9276 24.483 23.635 24.4856 23.3291C24.4883 23.0232 24.3707 22.7285 24.1582 22.5085L20.2067 18.557C21.2778 17.1774 21.9403 15.5249 22.1188 13.7874C22.2974 12.0499 21.9848 10.2972 21.2166 8.72859C20.4485 7.15995 19.2556 5.83834 17.7736 4.91403C16.2916 3.98972 14.58 3.49981 12.8333 3.5ZM17.5 12.8333C17.5 14.071 17.0083 15.258 16.1332 16.1332C15.258 17.0083 14.071 17.5 12.8333 17.5C11.5957 17.5 10.4087 17.0083 9.53351 16.1332C8.65834 15.258 8.16667 14.071 8.16667 12.8333C8.16667 11.5957 8.65834 10.4087 9.53351 9.5335C10.4087 8.65833 11.5957 8.16667 12.8333 8.16667C14.071 8.16667 15.258 8.65833 16.1332 9.5335C17.0083 10.4087 17.5 11.5957 17.5 12.8333Z" fill="#0B0F14"/>
</svg>
